<?xml version="1.0" encoding="utf-8"?>
<!-- Generator: Adobe Adobe Illustrator 24.2.0, SVG Export Plug-In . SVG Version: 6.00 Build 0)  -->
<svg version="1.1" id="shapes" xmlns="http://www.w3.org/2000/svg" xmlns:xlink="http://www.w3.org/1999/xlink" x="0px" y="0px"
	 width="1451px" height="547px" viewBox="0 0 1451 547" style="enable-background:new 0 0 1451 547;" xml:space="preserve">
<style type="text/css">
	.st0{fill:none;stroke:#20408B;stroke-width:4;stroke-miterlimit:10;}
	.st1{fill:none;stroke:#20408B;stroke-width:6;stroke-miterlimit:10;}
</style>
<rect id="path-12" x="1375.61" y="235.27" transform="matrix(0.4224 -0.9064 0.9064 0.4224 591.2628 1429.4192)" class="st0" width="83.25" height="31"/>
<rect id="path-11" x="1360.33" y="57.25" transform="matrix(0.4224 -0.9064 0.9064 0.4224 740.2626 1294.4564)" class="st0" width="51" height="18.25"/>
<rect id="path-10" x="1240.07" y="395.49" transform="matrix(0.4224 -0.9064 0.9064 0.4224 375.4122 1436.1245)" class="st1" width="149" height="56"/>
<rect id="path-9" x="1177.82" y="109.66" transform="matrix(0.4224 -0.9064 0.9064 0.4224 597.1721 1208.467)" class="st1" width="138" height="52"/>
<rect id="path-8" x="1129" y="343.46" transform="matrix(0.4224 -0.9064 0.9064 0.4224 350.5504 1268.0359)" class="st0" width="82.5" height="31"/>
<rect id="path-7" x="926.58" y="458.91" transform="matrix(0.4224 -0.9064 0.9064 0.4224 124.5415 1128.2719)" class="st0" width="42" height="15"/>
<rect id="path-6" x="395.83" y="409.66" transform="matrix(0.4224 -0.9064 0.9064 0.4224 -137.3675 618.7549)" class="st0" width="42" height="15"/>
<rect id="path-5" x="360.58" y="21.91" transform="matrix(0.4224 -0.9064 0.9064 0.4224 193.7291 362.8487)" class="st0" width="42" height="15"/>
<rect id="path-4" x="173.82" y="261.66" transform="matrix(0.4224 -0.9064 0.9064 0.4224 -120.4882 386.234)" class="st1" width="138" height="52"/>
<rect id="path-3_3_" x="142.95" y="30.3" transform="matrix(0.4224 -0.9064 0.9064 0.4224 65.0224 193.6435)" class="st0" width="83" height="31"/>
<rect id="path-2_1_" x="41.53" y="480.43" transform="matrix(0.4224 -0.9064 0.9064 0.4224 -400.4579 364.6604)" class="st1" width="88.75" height="32.25"/>
<rect id="path-1_1_" x="-5.01" y="323.79" transform="matrix(0.4224 -0.9064 0.9064 0.4224 -287.6979 217.0855)" class="st1" width="63" height="21"/>
</svg>
