<svg width="15" height="24" viewBox="0 0 15 24" fill="none" xmlns="http://www.w3.org/2000/svg">
<path d="M14.6667 0.67455C14.6667 0.497739 14.5964 0.32817 14.4714 0.203146C14.3464 0.0781218 14.1768 0.00788376 14 0.00788376H10.6667C8.98816 -0.0757284 7.3448 0.508406 6.09563 1.63266C4.84646 2.75691 4.09305 4.32988 4 6.00788V9.60788H0.666667C0.489856 9.60788 0.320287 9.67812 0.195262 9.80315C0.070238 9.92817 0 10.0977 0 10.2745V13.7412C0 13.918 0.070238 14.0876 0.195262 14.2126C0.320287 14.3376 0.489856 14.4079 0.666667 14.4079H4V23.3412C4 23.518 4.07024 23.6876 4.19526 23.8126C4.32029 23.9376 4.48986 24.0079 4.66667 24.0079H8.66667C8.84348 24.0079 9.01305 23.9376 9.13807 23.8126C9.2631 23.6876 9.33333 23.518 9.33333 23.3412V14.4079H12.8267C12.9749 14.41 13.1197 14.3627 13.238 14.2733C13.3563 14.184 13.4415 14.0577 13.48 13.9145L14.44 10.4479C14.4665 10.3494 14.4701 10.2461 14.4504 10.146C14.4308 10.0459 14.3884 9.95166 14.3265 9.87051C14.2647 9.78937 14.1851 9.72349 14.0938 9.67796C14.0025 9.63243 13.902 9.60845 13.8 9.60788H9.33333V6.00788C9.3665 5.67785 9.52149 5.37203 9.76803 5.15014C10.0146 4.92825 10.335 4.80622 10.6667 4.80788H14C14.1768 4.80788 14.3464 4.73765 14.4714 4.61262C14.5964 4.4876 14.6667 4.31803 14.6667 4.14122V0.67455Z" fill="white"/>
</svg>
